<mxfile host="Electron" modified="2024-03-31T08:46:07.051Z" agent="Mozilla/5.0 (Windows NT 10.0; Win64; x64) AppleWebKit/537.36 (KHTML, like Gecko) draw.io/23.1.5 Chrome/120.0.6099.109 Electron/28.1.0 Safari/537.36" etag="TYBxCo-wJ82pzPZcWWdT" version="23.1.5" type="device">
  <diagram name="第 1 页" id="tSKto8BaOnrQtJKtz0LG">
    <mxGraphModel dx="1434" dy="844" grid="1" gridSize="10" guides="1" tooltips="1" connect="1" arrows="1" fold="1" page="1" pageScale="1" pageWidth="827" pageHeight="1169" math="0" shadow="0">
      <root>
        <mxCell id="0" />
        <mxCell id="1" parent="0" />
        <mxCell id="7-XEfEdBTlpSCP9cFSvL-1" value="用户" style="shape=umlActor;verticalLabelPosition=bottom;verticalAlign=top;html=1;outlineConnect=0;" vertex="1" parent="1">
          <mxGeometry x="70" y="380" width="30" height="60" as="geometry" />
        </mxCell>
        <mxCell id="7-XEfEdBTlpSCP9cFSvL-2" value="手动选择目录" style="ellipse;whiteSpace=wrap;html=1;" vertex="1" parent="1">
          <mxGeometry x="660" y="190" width="120" height="80" as="geometry" />
        </mxCell>
        <mxCell id="7-XEfEdBTlpSCP9cFSvL-3" value="拖拽识别目录" style="ellipse;whiteSpace=wrap;html=1;" vertex="1" parent="1">
          <mxGeometry x="660" y="370" width="120" height="80" as="geometry" />
        </mxCell>
        <mxCell id="7-XEfEdBTlpSCP9cFSvL-4" value="自动识别目录" style="ellipse;whiteSpace=wrap;html=1;" vertex="1" parent="1">
          <mxGeometry x="660" y="550" width="120" height="80" as="geometry" />
        </mxCell>
        <mxCell id="7-XEfEdBTlpSCP9cFSvL-5" value="设置创意工坊&lt;br&gt;壁纸目录" style="ellipse;whiteSpace=wrap;html=1;" vertex="1" parent="1">
          <mxGeometry x="250" y="190" width="120" height="80" as="geometry" />
        </mxCell>
        <mxCell id="7-XEfEdBTlpSCP9cFSvL-6" value="设置本地备份&lt;br&gt;壁纸目录" style="ellipse;whiteSpace=wrap;html=1;" vertex="1" parent="1">
          <mxGeometry x="250" y="310" width="120" height="80" as="geometry" />
        </mxCell>
        <mxCell id="7-XEfEdBTlpSCP9cFSvL-7" value="设置官方备份&lt;br&gt;壁纸目录" style="ellipse;whiteSpace=wrap;html=1;" vertex="1" parent="1">
          <mxGeometry x="250" y="430" width="120" height="80" as="geometry" />
        </mxCell>
        <mxCell id="7-XEfEdBTlpSCP9cFSvL-8" value="设置解包&lt;br&gt;壁纸目录" style="ellipse;whiteSpace=wrap;html=1;" vertex="1" parent="1">
          <mxGeometry x="250" y="550" width="120" height="80" as="geometry" />
        </mxCell>
        <mxCell id="7-XEfEdBTlpSCP9cFSvL-10" value="" style="endArrow=open;html=1;rounded=0;endFill=0;" edge="1" parent="1" source="7-XEfEdBTlpSCP9cFSvL-1" target="7-XEfEdBTlpSCP9cFSvL-5">
          <mxGeometry width="50" height="50" relative="1" as="geometry">
            <mxPoint y="290" as="sourcePoint" />
            <mxPoint x="50" y="240" as="targetPoint" />
          </mxGeometry>
        </mxCell>
        <mxCell id="7-XEfEdBTlpSCP9cFSvL-11" value="" style="endArrow=open;html=1;rounded=0;endFill=0;" edge="1" parent="1" source="7-XEfEdBTlpSCP9cFSvL-1" target="7-XEfEdBTlpSCP9cFSvL-6">
          <mxGeometry width="50" height="50" relative="1" as="geometry">
            <mxPoint x="160" y="331.87" as="sourcePoint" />
            <mxPoint x="308.652628872778" y="368.126738749458" as="targetPoint" />
          </mxGeometry>
        </mxCell>
        <mxCell id="7-XEfEdBTlpSCP9cFSvL-12" value="" style="endArrow=open;html=1;rounded=0;endFill=0;" edge="1" parent="1" source="7-XEfEdBTlpSCP9cFSvL-1" target="7-XEfEdBTlpSCP9cFSvL-7">
          <mxGeometry width="50" height="50" relative="1" as="geometry">
            <mxPoint x="140" y="352" as="sourcePoint" />
            <mxPoint x="283" y="275" as="targetPoint" />
          </mxGeometry>
        </mxCell>
        <mxCell id="7-XEfEdBTlpSCP9cFSvL-13" value="" style="endArrow=open;html=1;rounded=0;endFill=0;" edge="1" parent="1" source="7-XEfEdBTlpSCP9cFSvL-1" target="7-XEfEdBTlpSCP9cFSvL-8">
          <mxGeometry width="50" height="50" relative="1" as="geometry">
            <mxPoint x="150" y="362" as="sourcePoint" />
            <mxPoint x="293" y="285" as="targetPoint" />
          </mxGeometry>
        </mxCell>
        <mxCell id="7-XEfEdBTlpSCP9cFSvL-14" value="" style="endArrow=open;dashed=1;html=1;rounded=0;endFill=0;" edge="1" parent="1" source="7-XEfEdBTlpSCP9cFSvL-5" target="7-XEfEdBTlpSCP9cFSvL-2">
          <mxGeometry width="50" height="50" relative="1" as="geometry">
            <mxPoint x="460" y="200" as="sourcePoint" />
            <mxPoint x="570" y="170" as="targetPoint" />
          </mxGeometry>
        </mxCell>
        <mxCell id="7-XEfEdBTlpSCP9cFSvL-15" value="" style="endArrow=open;dashed=1;html=1;rounded=0;endFill=0;" edge="1" parent="1" source="7-XEfEdBTlpSCP9cFSvL-5" target="7-XEfEdBTlpSCP9cFSvL-3">
          <mxGeometry width="50" height="50" relative="1" as="geometry">
            <mxPoint x="380" y="240" as="sourcePoint" />
            <mxPoint x="670" y="240" as="targetPoint" />
          </mxGeometry>
        </mxCell>
        <mxCell id="7-XEfEdBTlpSCP9cFSvL-16" value="" style="endArrow=open;dashed=1;html=1;rounded=0;endFill=0;" edge="1" parent="1" source="7-XEfEdBTlpSCP9cFSvL-6" target="7-XEfEdBTlpSCP9cFSvL-2">
          <mxGeometry width="50" height="50" relative="1" as="geometry">
            <mxPoint x="370" y="262" as="sourcePoint" />
            <mxPoint x="680" y="398" as="targetPoint" />
          </mxGeometry>
        </mxCell>
        <mxCell id="7-XEfEdBTlpSCP9cFSvL-17" value="" style="endArrow=open;dashed=1;html=1;rounded=0;endFill=0;" edge="1" parent="1" source="7-XEfEdBTlpSCP9cFSvL-6" target="7-XEfEdBTlpSCP9cFSvL-3">
          <mxGeometry width="50" height="50" relative="1" as="geometry">
            <mxPoint x="380" y="272" as="sourcePoint" />
            <mxPoint x="690" y="408" as="targetPoint" />
          </mxGeometry>
        </mxCell>
        <mxCell id="7-XEfEdBTlpSCP9cFSvL-18" value="" style="endArrow=open;dashed=1;html=1;rounded=0;endFill=0;" edge="1" parent="1" source="7-XEfEdBTlpSCP9cFSvL-7" target="7-XEfEdBTlpSCP9cFSvL-2">
          <mxGeometry width="50" height="50" relative="1" as="geometry">
            <mxPoint x="390" y="282" as="sourcePoint" />
            <mxPoint x="700" y="418" as="targetPoint" />
          </mxGeometry>
        </mxCell>
        <mxCell id="7-XEfEdBTlpSCP9cFSvL-19" value="" style="endArrow=open;dashed=1;html=1;rounded=0;endFill=0;" edge="1" parent="1" source="7-XEfEdBTlpSCP9cFSvL-7" target="7-XEfEdBTlpSCP9cFSvL-3">
          <mxGeometry width="50" height="50" relative="1" as="geometry">
            <mxPoint x="400" y="292" as="sourcePoint" />
            <mxPoint x="710" y="428" as="targetPoint" />
          </mxGeometry>
        </mxCell>
        <mxCell id="7-XEfEdBTlpSCP9cFSvL-20" value="" style="endArrow=open;dashed=1;html=1;rounded=0;endFill=0;" edge="1" parent="1" source="7-XEfEdBTlpSCP9cFSvL-7" target="7-XEfEdBTlpSCP9cFSvL-4">
          <mxGeometry width="50" height="50" relative="1" as="geometry">
            <mxPoint x="410" y="302" as="sourcePoint" />
            <mxPoint x="720" y="438" as="targetPoint" />
          </mxGeometry>
        </mxCell>
        <mxCell id="7-XEfEdBTlpSCP9cFSvL-21" value="" style="endArrow=open;dashed=1;html=1;rounded=0;endFill=0;" edge="1" parent="1" source="7-XEfEdBTlpSCP9cFSvL-8" target="7-XEfEdBTlpSCP9cFSvL-2">
          <mxGeometry width="50" height="50" relative="1" as="geometry">
            <mxPoint x="420" y="312" as="sourcePoint" />
            <mxPoint x="730" y="448" as="targetPoint" />
          </mxGeometry>
        </mxCell>
        <mxCell id="7-XEfEdBTlpSCP9cFSvL-22" value="" style="endArrow=open;dashed=1;html=1;rounded=0;endFill=0;" edge="1" parent="1" source="7-XEfEdBTlpSCP9cFSvL-8" target="7-XEfEdBTlpSCP9cFSvL-3">
          <mxGeometry width="50" height="50" relative="1" as="geometry">
            <mxPoint x="430" y="322" as="sourcePoint" />
            <mxPoint x="740" y="458" as="targetPoint" />
          </mxGeometry>
        </mxCell>
      </root>
    </mxGraphModel>
  </diagram>
</mxfile>
